<svg width="16" height="13" viewBox="0 0 16 13" fill="none" xmlns="http://www.w3.org/2000/svg">
<path d="M14.8571 1.10367H1.15476C0.803107 1.10367 0.523387 1.20557 0.315595 1.40937C0.107802 1.61316 0.00390625 1.89488 0.00390625 2.25452V10.9458C0.00390625 11.3135 0.105804 11.5972 0.309601 11.797C0.513397 11.9968 0.803107 12.0967 1.17873 12.0967H14.8451C15.2047 12.0967 15.4884 11.9948 15.6962 11.791C15.904 11.5872 16.0079 11.3135 16.0079 10.9698V2.24253C16.0079 1.89089 15.904 1.61316 15.6962 1.40937C15.4884 1.20557 15.2087 1.10367 14.8571 1.10367ZM1.09482 11.0178C1.09482 10.9938 1.09482 10.9498 1.09482 10.8859C1.09482 10.8539 1.09681 10.8319 1.10081 10.82C1.10481 10.808 1.12279 10.79 1.15476 10.766C2.28962 9.85492 3.71619 8.70008 5.43448 7.30148L7.42449 8.91986C7.8081 9.23154 8.18772 9.23154 8.56335 8.91986L10.5773 7.28949L14.905 10.814V11.0178H1.09482ZM11.4285 6.59418L14.905 3.78899V9.41137L11.4285 6.59418ZM14.8331 2.44633C12.9709 3.94883 10.6932 5.79498 7.99991 7.98479L1.09482 2.3744V2.18259H14.905L14.917 2.30247C14.917 2.34243 14.913 2.37041 14.905 2.38639C14.897 2.40237 14.873 2.42635 14.8331 2.45832V2.44633ZM4.57134 6.59418L1.1068 9.41137V3.78899L4.57134 6.59418Z" fill="#002E5E"/>
</svg>
