<svg width="17" height="17" viewBox="0 0 17 17" fill="none" xmlns="http://www.w3.org/2000/svg">
<path d="M14.4593 6.62607C14.3847 5.5285 14.0491 4.51085 13.4523 3.57312C12.8662 2.66736 12.099 1.94808 11.1506 1.41528C10.1809 0.871826 9.13397 0.600098 8.00977 0.600098C6.88556 0.600098 5.8386 0.871826 4.86891 1.41528C3.92052 1.94808 3.15329 2.66736 2.56721 3.57312C1.97047 4.51085 1.63481 5.5285 1.56022 6.62607C1.11266 6.73263 0.742366 6.96706 0.449326 7.32937C0.156286 7.69167 0.00976562 8.10726 0.00976562 8.57612V9.95075C0.00976562 10.3131 0.100342 10.6461 0.281494 10.9497C0.462646 11.2534 0.70507 11.4959 1.00877 11.677C1.31246 11.8582 1.64546 11.9487 2.00777 11.9487C2.37007 11.9487 2.70574 11.8582 3.01476 11.677C3.32378 11.4959 3.56887 11.2534 3.75003 10.9497C3.93118 10.6461 4.02175 10.3131 4.02175 9.95075V8.57612C4.02175 8.11791 3.8779 7.70766 3.59019 7.34535C3.30247 6.98305 2.93484 6.74862 2.48729 6.64206C2.56188 5.70433 2.85226 4.84385 3.35842 4.06064C3.86458 3.27742 4.52259 2.66204 5.33244 2.21448C6.16361 1.75628 7.05605 1.52717 8.00977 1.52717C8.96348 1.52717 9.85592 1.75628 10.6871 2.21448C11.4969 2.66204 12.155 3.27742 12.6611 4.06064C13.1673 4.84385 13.4577 5.70433 13.5322 6.64206C13.0847 6.74862 12.7171 6.98305 12.4293 7.34535C12.1416 7.70766 11.9978 8.11791 11.9978 8.57612V9.95075C11.9978 10.409 12.1416 10.8192 12.4293 11.1815C12.7171 11.5438 13.0847 11.7783 13.5322 11.8848C13.479 12.375 13.3165 12.8225 13.0447 13.2275C12.773 13.6324 12.4214 13.9494 11.9898 14.1785C11.5582 14.4076 11.092 14.5222 10.5912 14.5222H9.53624C9.42968 14.1918 9.23521 13.9174 8.95282 13.699C8.67044 13.4806 8.34809 13.3713 7.98579 13.3713C7.68742 13.3713 7.41569 13.4433 7.1706 13.5871C6.92552 13.731 6.73104 13.9281 6.58719 14.1785C6.44333 14.4289 6.3714 14.7007 6.3714 14.9937C6.3714 15.2867 6.44333 15.5558 6.58719 15.8009C6.73104 16.046 6.92552 16.2405 7.1706 16.3843C7.41569 16.5282 7.68742 16.6001 7.98579 16.6001C8.34809 16.6001 8.67044 16.4935 8.95282 16.2804C9.23521 16.0673 9.42968 15.7902 9.53624 15.4492H10.5912C11.2625 15.4492 11.8832 15.2921 12.4533 14.9777C13.0234 14.6634 13.487 14.2345 13.8439 13.691C14.2009 13.1476 14.406 12.5508 14.4593 11.9008C14.9069 11.7942 15.2772 11.5598 15.5702 11.1975C15.8632 10.8352 16.0098 10.4196 16.0098 9.95075V8.57612C16.0098 8.10726 15.8632 7.69167 15.5702 7.32937C15.2772 6.96706 14.9069 6.73263 14.4593 6.62607ZM3.09468 8.57612V9.95075C3.09468 10.2491 2.98812 10.5022 2.775 10.71C2.56188 10.9178 2.3088 11.0217 2.01576 11.0217C1.72272 11.0217 1.46964 10.9178 1.25652 10.71C1.0434 10.5022 0.936839 10.2491 0.936839 9.95075V8.57612C0.936839 8.27775 1.0434 8.02467 1.25652 7.81688C1.46964 7.60909 1.72272 7.50519 2.01576 7.50519C2.3088 7.50519 2.56188 7.60909 2.775 7.81688C2.98812 8.02467 3.09468 8.27775 3.09468 8.57612ZM7.98579 15.673C7.79398 15.673 7.63148 15.6064 7.49828 15.4732C7.36508 15.34 7.29848 15.1775 7.29848 14.9857C7.29848 14.7939 7.36508 14.6314 7.49828 14.4982C7.63148 14.365 7.79398 14.2984 7.98579 14.2984C8.1776 14.2984 8.3401 14.365 8.4733 14.4982C8.6065 14.6314 8.6731 14.7939 8.6731 14.9857C8.6731 15.1775 8.6065 15.34 8.4733 15.4732C8.3401 15.6064 8.1776 15.673 7.98579 15.673ZM15.0827 9.95075C15.0827 10.2491 14.9761 10.5022 14.763 10.71C14.5499 10.9178 14.2968 11.0217 14.0038 11.0217C13.7107 11.0217 13.4577 10.9178 13.2445 10.71C13.0314 10.5022 12.9249 10.2491 12.9249 9.95075V8.57612C12.9249 8.27775 13.0314 8.02467 13.2445 7.81688C13.4577 7.60909 13.7107 7.50519 14.0038 7.50519C14.2968 7.50519 14.5499 7.60909 14.763 7.81688C14.9761 8.02467 15.0827 8.27775 15.0827 8.57612V9.95075Z" fill="#002E5E"/>
</svg>
